<?xml version="1.0" standalone="no"?>
<!DOCTYPE svg PUBLIC "-//W3C//DTD SVG 20010904//EN"
 "http://www.w3.org/TR/2001/REC-SVG-20010904/DTD/svg10.dtd">
<svg version="1.0" xmlns="http://www.w3.org/2000/svg"
 width="512.000000pt" height="512.000000pt" viewBox="0 0 512.000000 512.000000"
 preserveAspectRatio="xMidYMid meet">
<metadata>
Created by potrace 1.14, written by Peter Selinger 2001-2017
</metadata>
<g transform="translate(0.000000,512.000000) scale(0.100000,-0.100000)"
fill="#000000" stroke="none">
<path d="M4327 5054 c-1 -1 -58 -4 -127 -5 -69 -1 -141 -6 -161 -10 -20 -5
-51 -11 -70 -13 -19 -3 -49 -9 -67 -15 -18 -5 -33 -9 -35 -9 -7 3 -92 -29
-149 -58 -140 -68 -246 -164 -315 -281 -49 -85 -56 -102 -81 -194 -29 -106
-33 -145 -33 -380 0 -115 -4 -211 -8 -213 -4 -3 -58 13 -122 34 -63 21 -128
41 -144 44 -239 45 -285 50 -465 51 -181 0 -274 -9 -420 -39 -214 -45 -437
-133 -623 -245 -84 -51 -241 -165 -282 -205 -12 -11 -42 -40 -66 -62 -103 -97
-214 -229 -296 -355 -168 -259 -281 -573 -310 -864 -10 -99 -10 -381 0 -455
60 -464 246 -849 565 -1174 226 -229 501 -400 810 -500 28 -10 50 -21 47 -26
-2 -4 35 -13 83 -19 48 -6 98 -13 112 -16 108 -23 243 -33 405 -30 176 4 207
6 310 25 28 5 65 12 82 15 49 8 258 73 322 99 31 13 101 41 156 61 518 192
870 527 1014 966 12 36 24 76 27 90 29 138 29 141 40 239 8 66 13 3500 5 3533
-3 16 -14 18 -102 16 -55 -1 -100 -4 -102 -5z m-1579 -2384 c121 -33 243 -105
320 -189 44 -47 115 -157 131 -201 7 -19 17 -44 21 -55 35 -84 41 -248 15
-375 -16 -80 -98 -227 -164 -296 -136 -143 -306 -217 -496 -216 -102 0 -160
12 -255 49 -325 129 -499 493 -394 828 40 130 128 255 239 342 82 64 216 118
320 130 28 3 51 6 52 7 10 8 154 -9 211 -24z"/>
</g>
</svg>
