<svg width="512" height="512" viewBox="0 0 512 512" fill="none" xmlns="http://www.w3.org/2000/svg">
<path fill-rule="evenodd" clip-rule="evenodd" d="M257.457 452.015C335.629 452.015 399 388.66 399 310.508C399 232.355 335.629 169 257.457 169C179.284 169 115.913 232.355 115.913 310.508C115.913 388.66 179.284 452.015 257.457 452.015ZM257.457 378.426C294.976 378.426 325.392 348.018 325.392 310.507C325.392 272.997 294.976 242.589 257.457 242.589C219.937 242.589 189.521 272.997 189.521 310.507C189.521 348.018 219.937 378.426 257.457 378.426Z" fill="white"/>
<path fill-rule="evenodd" clip-rule="evenodd" d="M254 511C364.457 511 454 421.48 454 311.051C454 200.622 364.457 111.101 254 111.101C143.543 111.101 54 200.622 54 311.051C54 421.48 143.543 511 254 511ZM254 407.018C307.015 407.018 349.992 364.052 349.992 311.051C349.992 258.049 307.015 215.083 254 215.083C200.985 215.083 158.008 258.049 158.008 311.051C158.008 364.052 200.985 407.018 254 407.018Z" fill="white"/>
<path d="M353.695 91.2756C353.695 10.9169 427.225 4.4248 453.344 6.12776V344.165C453.344 492.571 281.869 515.879 221.683 503.391C353.695 443.779 353.695 344.165 353.695 344.165V91.2756Z" fill="white"/>
<path d="M328.695 92.2756C328.695 11.9169 402.225 5.4248 428.344 7.12776V345.165C428.344 493.571 256.869 516.879 196.683 504.391C328.695 444.779 328.695 345.165 328.695 345.165V92.2756Z" fill="white"/>
<path fill-rule="evenodd" clip-rule="evenodd" d="M256 493C357.068 493 439 411.018 439 309.889C439 208.759 357.068 126.777 256 126.777C154.932 126.777 73 208.759 73 309.889C73 411.018 154.932 493 256 493ZM256 397.775C304.509 397.775 343.833 358.427 343.833 309.889C343.833 261.35 304.509 222.003 256 222.003C207.492 222.003 168.168 261.35 168.168 309.889C168.168 358.427 207.492 397.775 256 397.775Z" fill="url(#paint0_linear_102_315)"/>
<g filter="url(#filter0_d_102_315)">
<path d="M344.383 100.51C344.383 24.642 413.743 18.5128 438.381 20.1206V339.265C438.381 479.378 276.629 501.383 219.855 489.593C344.383 433.312 344.383 339.265 344.383 339.265V100.51Z" fill="url(#paint1_linear_102_315)"/>
</g>
<defs>
<filter id="filter0_d_102_315" x="198.855" y="5.91498" width="246.525" height="500.419" filterUnits="userSpaceOnUse" color-interpolation-filters="sRGB">
<feFlood flood-opacity="0" result="BackgroundImageFix"/>
<feColorMatrix in="SourceAlpha" type="matrix" values="0 0 0 0 0 0 0 0 0 0 0 0 0 0 0 0 0 0 127 0" result="hardAlpha"/>
<feOffset dx="-7"/>
<feGaussianBlur stdDeviation="7"/>
<feComposite in2="hardAlpha" operator="out"/>
<feColorMatrix type="matrix" values="0 0 0 0 0.916667 0 0 0 0 0.916667 0 0 0 0 0.916667 0 0 0 0.12 0"/>
<feBlend mode="normal" in2="BackgroundImageFix" result="effect1_dropShadow_102_315"/>
<feBlend mode="normal" in="SourceGraphic" in2="effect1_dropShadow_102_315" result="shape"/>
</filter>
<linearGradient id="paint0_linear_102_315" x1="310.091" y1="130.507" x2="184.449" y2="480.887" gradientUnits="userSpaceOnUse">
<stop stop-color="#5B51D8"/>
<stop offset="1" stop-color="#833AB4"/>
</linearGradient>
<linearGradient id="paint1_linear_102_315" x1="361.414" y1="24.7258" x2="114.451" y2="343.493" gradientUnits="userSpaceOnUse">
<stop stop-color="#5B51D8"/>
<stop offset="1" stop-color="#833AB4"/>
</linearGradient>
</defs>
</svg>
